<?xml version="1.0" encoding="UTF-8"?>
<svg width="69px" height="67px" viewBox="0 0 69 67" version="1.1" xmlns="http://www.w3.org/2000/svg" xmlns:xlink="http://www.w3.org/1999/xlink">
    <!-- Generator: sketchtool 47.1 (45422) - http://www.bohemiancoding.com/sketch -->
    <title>6DB50D2A-8C5F-49DA-AC87-CF017F428CAC</title>
    <desc>Created with sketchtool.</desc>
    <defs></defs>
    <g id="Page-1" stroke="none" stroke-width="1" fill="none" fill-rule="evenodd">
        <g id="Why-CGS-CIMB" transform="translate(-1070.000000, -2765.000000)" stroke-width="2.3" stroke="#F7F7F7" fill="#0B318F" fill-rule="nonzero">
            <g id="For-institutional" transform="translate(0.000000, 2525.000000)">
                <g id="Advance" transform="translate(1072.000000, 242.000000)">
                    <g id="Icon_advance">
                        <path d="M43,31.4991605 C43,30.5086683 42.5441828,29.5734004 41.7701863,28.9798139 L4.91320798,0.629412677 C3.98343311,-0.0843677369 2.73864626,-0.201313142 1.69772456,0.331142831 C0.656802871,0.86655197 0,1.95538457 0,3.14905458 L0,59.849857 C0,61.043527 0.656802871,62.1323596 1.69772456,62.6677687 C2.13252173,62.8892562 2.60359998,63 3.07151084,63 C3.72226686,63 4.37331083,62.7876673 4.91320798,62.3694989 L41.7701863,34.0190977 C42.5438949,33.4249205 43,32.4896526 43,31.4991605 Z M6.14302168,53.5495709 L6.14302168,9.44874998 L34.8085366,31.4991605 L6.14302168,53.5495709 Z" id="Shape"></path>
                        <path d="M63.7702056,28.9795862 L26.9138057,0.628749089 C25.5581812,-0.411076925 23.6324343,-0.134065621 22.615716,1.25925989 C21.5958303,2.64963219 21.8719654,4.62474051 23.2304692,5.66751974 L56.8086651,31.4989715 L23.2304692,57.3304232 C21.8716774,58.3732025 21.5958303,60.3483108 22.615716,61.7386831 C23.2186637,62.5661731 24.1394978,63 25.0753048,63 C25.7171245,63 26.3621115,62.7938658 26.9138057,62.3694892 L63.7702056,34.0186521 C64.54419,33.4250565 65,32.4897742 65,31.4992668 C65,30.5087594 64.5439021,29.5731818 63.7702056,28.9795862 Z" id="Shape"></path>
                    </g>
                </g>
            </g>
        </g>
    </g>
</svg>