<?xml version="1.0" encoding="UTF-8"?>
<svg width="85px" height="65px" viewBox="0 0 85 65" version="1.1" xmlns="http://www.w3.org/2000/svg" xmlns:xlink="http://www.w3.org/1999/xlink">
    <!-- Generator: sketchtool 47.1 (45422) - http://www.bohemiancoding.com/sketch -->
    <title>BCD5B4D3-E468-4ECE-899D-F67B989C65B9</title>
    <desc>Created with sketchtool.</desc>
    <defs></defs>
    <g id="Page-1" stroke="none" stroke-width="1" fill="none" fill-rule="evenodd">
        <g id="Why-CGS-CIMB" transform="translate(-400.000000, -2763.000000)" fill-rule="nonzero" fill="#0B318F">
            <g id="For-institutional" transform="translate(0.000000, 2525.000000)">
                <g id="Conference" transform="translate(400.000000, 238.000000)">
                    <g id="Icon_Conference">
                        <path d="M80.75,5.65212352 L71.2650293,5.65212352 C65.9096973,1.88393078 58.7569141,1.88393078 53.401582,5.65212352 L49.4401172,5.65212352 C48.7670898,2.36265486 45.8659668,0 42.5,0 C39.1340332,0 36.2330762,2.36265486 35.5598828,5.65212352 L4.25,5.65212352 C1.90386719,5.65460738 0.00249023438,7.55112309 0,9.89125755 L0,60.760866 C0.00249023437,63.1010004 1.90386719,64.9975161 4.25,65 L29.591123,65 L55.4087109,65 L80.75,65 C83.0961328,64.9975161 84.9975098,63.1010004 85,60.760866 L85,9.89125755 C84.9975098,7.55112309 83.0961328,5.65477297 80.75,5.65212352 Z M62.3333887,5.65212352 C69.3717871,5.65974071 75.075752,11.3491222 75.0833887,18.3695256 C75.0833887,25.3930752 69.3749414,31.0869277 62.3333887,31.0869277 C55.2918359,31.0869277 49.5833887,25.3930752 49.5833887,18.3695256 C49.5833887,11.345976 55.2916699,5.65212352 62.3333887,5.65212352 Z M42.5,2.82614455 C44.295127,2.83160906 45.8925293,3.96342473 46.4890234,5.65228911 L38.5111426,5.65228911 C39.1074707,3.96342473 40.704873,2.83160906 42.5,2.82614455 Z M82.1667773,60.760866 C82.1662793,61.540966 81.5322656,62.1733587 80.750166,62.1738554 L4.25016602,62.1738554 C3.46806641,62.1733587 2.83405273,61.540966 2.83355469,60.760866 L2.83355469,9.89125755 C2.83405273,9.11115753 3.46806641,8.47876484 4.25016602,8.47826807 L50.3221582,8.47826807 C47.6479785,11.6988508 46.3917383,15.8604882 46.8386523,20.0183169 C47.2855664,24.1761457 49.3976172,27.9776223 52.6953516,30.5596854 L45.7060938,41.2942988 C43.9277344,40.6602502 41.9468359,40.9924261 40.4742773,42.171932 L36.3657227,38.9775127 C37.3955176,36.6092278 36.6858008,33.8461734 34.6413184,32.263453 C32.5968359,30.6807326 29.7370508,30.6807326 27.6925684,32.263453 C25.6480859,33.8461734 24.9383691,36.6093934 25.9681641,38.9775127 L21.8596094,42.171932 C20.8772949,41.4030922 19.6657129,40.9829874 18.4171094,40.9781853 C15.905625,40.9723896 13.6884863,42.6124046 12.9649902,45.0113239 C12.2414941,47.4100776 13.1831348,49.9981021 15.2809082,51.3754894 C17.3786816,52.7528768 20.134209,52.5925846 22.057168,50.9813825 C23.980127,49.3701803 24.6139746,46.6904184 23.6158887,44.3918473 L27.7244434,41.197428 C29.7420313,42.7892559 32.5920215,42.7892559 34.6096094,41.197428 L38.7181641,44.3918473 C37.5814551,46.9780503 38.5308984,50.0043945 40.9431055,51.4827925 C43.3551465,52.9611905 46.4908496,52.438916 48.290625,50.2590738 C50.0902344,48.079066 50.0024121,44.9093197 48.0849316,42.8318129 L55.0665527,32.1087909 C61.6323047,35.5711367 69.7356934,33.9268163 74.4233105,28.1809682 C79.1109277,22.4351201 79.0782227,14.1870238 74.3451172,8.47843366 L80.750498,8.47843366 C81.5325977,8.47893043 82.1666113,9.11132312 82.1671094,9.89142314 L82.1671094,60.760866 L82.1667773,60.760866 Z M46.75,46.6304744 C46.75,48.1913368 45.4814746,49.4566189 43.9166113,49.4566189 C42.351748,49.4566189 41.0832227,48.1913368 41.0832227,46.6304744 C41.0852148,45.0704399 42.3525781,43.8064825 43.9166113,43.8043298 C45.4814746,43.8043298 46.75,45.069612 46.75,46.6304744 Z M34,36.7392168 C34,38.3000792 32.7314746,39.5653614 31.1666113,39.5653614 C29.6025781,39.5633743 28.3353809,38.2992513 28.3332227,36.7392168 C28.3332227,35.1783544 29.601748,33.9130723 31.1666113,33.9130723 C32.7314746,33.9130723 34,35.1783544 34,36.7392168 Z M21.25,46.6304744 C21.25,48.1913368 19.9814746,49.4566189 18.4166113,49.4566189 C16.851748,49.4566189 15.5832227,48.1913368 15.5832227,46.6304744 C15.5832227,45.069612 16.851748,43.8043298 18.4166113,43.8043298 C19.9806445,43.8064825 21.2480078,45.0706055 21.25,46.6304744 Z" id="Shape"></path>
                        <path d="M58.7500403,20.7576904 C58.7500403,20.0081361 58.1345159,19.4006044 57.3751007,19.4006044 C56.6156855,19.4006044 56.0001611,20.0081361 56.0001611,20.7576904 C56.148886,23.0117606 57.863653,24.8613927 60.125141,25.2073041 L60.125141,25.6429139 C60.125141,26.3924682 60.7406653,27 61.5000806,27 C62.2594958,27 62.8750201,26.3924682 62.8750201,25.6429139 L62.8750201,25.2073041 C65.1365081,24.8613927 66.8512751,23.0116015 67,20.7576904 C66.8517585,18.5033022 65.1368304,16.6528749 62.8750201,16.3068044 L62.8750201,12.6153331 C63.6212226,12.8381478 64.1618205,13.4776465 64.2499597,14.2423096 C64.2499597,14.9918639 64.8656452,15.5993956 65.6248993,15.5993956 C66.3841534,15.5993956 66.9998389,14.9918639 66.9998389,14.2423096 C66.851114,11.9882394 65.136347,10.1386073 62.874859,9.79269589 L62.874859,9.35708606 C62.874859,8.60753179 62.2593347,8 61.4999194,8 C60.7405042,8 60.1249799,8.60753179 60.1249799,9.35708606 L60.1249799,9.79269589 C57.8634919,10.1386073 56.1487249,11.9883985 56,14.2423096 C56.1482415,16.4966978 57.8631696,18.3471251 60.1249799,18.6931956 L60.1249799,22.3843488 C59.3787774,22.1616932 58.8383406,21.5221944 58.7500403,20.7576904 Z M62.8750201,19.1297597 C63.6213837,19.3530515 64.1616594,19.9928683 64.2499597,20.7575314 C64.1616594,21.5220354 63.6212226,22.1616932 62.8750201,22.3845079 L62.8750201,19.1297597 Z M58.7500403,14.2423096 C58.8383406,13.4778056 59.3787774,12.8381478 60.1249799,12.6154921 L60.1249799,15.8702403 C59.3787774,15.6469485 58.8383406,15.0071317 58.7500403,14.2423096 Z" id="Shape"></path>
                    </g>
                </g>
            </g>
        </g>
    </g>
</svg>