<?xml version="1.0" encoding="UTF-8"?>
<svg width="72px" height="68px" viewBox="0 0 72 68" version="1.1" xmlns="http://www.w3.org/2000/svg" xmlns:xlink="http://www.w3.org/1999/xlink">
    <!-- Generator: sketchtool 47.1 (45422) - http://www.bohemiancoding.com/sketch -->
    <title>4690558B-566F-4418-8ED9-17B5B87CC14F</title>
    <desc>Created with sketchtool.</desc>
    <defs></defs>
    <g id="Page-1" stroke="none" stroke-width="1" fill="none" fill-rule="evenodd">
        <g id="Why-CGS-CIMB" transform="translate(-513.000000, -2243.000000)" fill-rule="nonzero" fill="#0B318F">
            <g id="For-retail-clients" transform="translate(63.000000, 2120.000000)">
                <g id="Market-Insights" transform="translate(450.000000, 123.000000)">
                    <path d="M53.4491075,25.9977888 C53.2404887,26.0899041 53.0434597,26.2609754 52.8348409,26.3530907 C52.5682723,26.4715246 52.3017037,26.5767993 52.0235452,26.6162773 C51.687437,26.6557552 51.4440483,26.4583653 51.3629188,26.0899041 C51.3049691,25.8135582 51.2701993,25.5108937 51.2933792,25.2345478 C51.3513288,24.642378 51.4556383,24.0633675 51.5483578,23.4711977 C51.8265163,21.7078477 52.1278547,19.9444976 52.3944232,18.1679882 C52.4639629,17.6942524 52.5450924,17.2073573 52.5335025,16.7204621 C52.5219125,16.1414516 52.2205742,15.8651057 51.7106169,15.8651057 C51.0036307,15.8651057 50.2966445,15.8651057 49.5896583,15.8651057 C48.917442,15.8651057 48.2568155,15.8651057 47.5845992,15.8651057 C47.42234,15.8651057 47.248491,15.8782651 47.0862318,15.9045837 C46.7733035,15.9703804 46.6226343,16.1414516 46.5994545,16.4177975 C46.5762746,16.6678248 46.692174,16.917852 46.9819224,17.036286 C47.2137212,17.1284013 47.4571098,17.1547199 47.7004985,17.1941979 C48.2568155,17.2863132 48.4422545,17.5100218 48.4422545,18.1548289 C48.4422545,18.2601035 48.4306646,18.3522189 48.4190747,18.4574935 C48.1872759,20.0102943 47.9322973,21.5499357 47.7004985,23.1027365 C47.5730092,23.9975709 47.4455199,24.8792459 47.3412105,25.7740802 C47.1789513,27.0768538 48.2915853,28.3138307 49.1608307,28.4454239 C49.6823778,28.5243799 50.215515,28.5506986 50.7486521,28.5375393 C51.884466,28.5243799 52.8348409,27.9716881 53.6345465,27.0636944 C53.7736258,26.9057825 53.8895252,26.6820739 53.9358849,26.4715246 C54.0286044,26.1030634 53.7736258,25.8530362 53.4491075,25.9977888 Z M50.69766,15.0199446 C52.0284337,15.0333223 53.1243649,13.8962176 53.1374117,12.5049366 C53.1504585,11.1002779 52.0675741,9.96317317 50.7107068,9.94979547 C49.3538395,9.94979547 48.2448615,11.0601447 48.2318147,12.4648035 C48.2318147,13.8560845 49.3277459,15.0065669 50.69766,15.0199446 Z M13.3670083,38.4573509 C12.3810248,38.4573509 11.5818843,39.285932 11.5818843,40.3082395 C11.5818843,41.3305469 12.3810248,42.159128 13.3670083,42.159128 L13.5157686,42.159128 C14.5017521,42.159128 15.3008926,41.3305469 15.3008926,40.3082395 C15.3008926,39.285932 14.5017521,38.4573509 13.5157686,38.4573509 L13.3670083,38.4573509 Z M19.5711074,38.4573509 C18.585124,38.4573509 17.7859835,39.285932 17.7859835,40.3082395 C17.7859835,41.3305469 18.585124,42.159128 19.5711074,42.159128 L19.7196694,42.159128 C20.7056529,42.159128 21.5047934,41.3305469 21.5047934,40.3082395 C21.5047934,39.285932 20.7056529,38.4573509 19.7196694,38.4573509 L19.5711074,38.4573509 Z M72,8.8947534 L72,29.7277379 C72,34.6603559 68.1853884,38.6630052 63.4280331,38.6630052 L40.2775537,38.6630052 C39.8249256,38.6630052 39.4522314,38.6603317 39.1404298,38.6535451 C38.8137521,38.6465529 38.4460165,38.6438794 38.3026116,38.6603317 C38.1532562,38.7631588 37.7871074,39.1109202 37.4342479,39.4479876 C37.2944132,39.5814572 37.1361322,39.7282944 36.9653554,39.8899387 L30.4155372,46.0797213 C29.8930909,46.5739085 29.1201322,46.7018255 28.473124,46.4060946 C27.8261157,46.1101581 27.3719008,45.4458948 27.3719008,44.7127373 L27.3719008,25.0898225 L8.67173554,25.0898225 C5.88257851,25.0898225 3.57024793,27.4595768 3.57024793,30.3510761 L3.57024793,51.1840606 C3.57024793,54.0757655 5.88277686,56.3492736 8.67173554,56.3492736 L34.5310413,56.3492736 C34.9763306,56.3492736 35.3928595,56.5613031 35.721719,56.8726637 L41.0578512,61.9737125 L41.0578512,44.3822508 C41.0578512,43.3599434 41.8569917,42.5313623 42.8429752,42.5313623 C43.8289587,42.5313623 44.6280992,43.3599434 44.6280992,44.3822508 L44.6280992,66.1688543 C44.6280992,66.9020118 44.2234711,67.5564037 43.5762645,67.8523402 C43.3447934,67.9582522 43.1123306,68 42.8689587,68 C42.4318017,68 42.000595,67.8138829 41.6651901,67.4963527 L33.8390083,60.050845 L8.67173554,60.050845 C3.91418182,60.050845 0,56.1166786 0,51.1838549 L0,30.3510761 C0,25.4184581 3.91418182,21.3880454 8.67173554,21.3880454 L27.3719008,21.3880454 L27.3719008,8.8947534 C27.3719008,3.96192976 31.3160331,0 36.0735868,0 L63.4282314,0 C68.1853884,0 72,3.96192976 72,8.8947534 Z M68.4297521,8.8947534 C68.4297521,6.00304852 66.2167934,3.70177709 63.4280331,3.70177709 L36.0735868,3.70177709 C33.2846281,3.70177709 30.9421488,6.00304852 30.9421488,8.8947534 L30.9421488,23.2562089 L30.9421488,40.5175955 L34.5312397,37.154531 C34.6974545,36.9972055 34.8837025,36.8532475 35.0195702,36.723274 C36.6585124,35.1574223 37.0778182,34.907141 39.2156033,34.9527963 C39.5071736,34.9591716 39.8544793,34.9614338 40.2775537,34.9614338 L63.4280331,34.9614338 C66.2167934,34.9614338 68.4297521,32.6194428 68.4297521,29.7279436 L68.4297521,8.8947534 Z" id="Icon-Market-insights"></path>
                </g>
            </g>
        </g>
    </g>
</svg>