<?xml version="1.0" encoding="UTF-8"?>
<svg width="67px" height="67px" viewBox="0 0 67 67" version="1.1" xmlns="http://www.w3.org/2000/svg" xmlns:xlink="http://www.w3.org/1999/xlink">
    <!-- Generator: sketchtool 47.1 (45422) - http://www.bohemiancoding.com/sketch -->
    <title>7EE876BA-7A3D-44FA-8F5A-565412D59C5B</title>
    <desc>Created with sketchtool.</desc>
    <defs></defs>
    <g id="Page-1" stroke="none" stroke-width="1" fill="none" fill-rule="evenodd">
        <g id="Why-CGS-CIMB" transform="translate(-63.000000, -2244.000000)" fill-rule="nonzero" fill="#0B318F">
            <g id="For-retail-clients" transform="translate(63.000000, 2120.000000)">
                <g id="Wide-network" transform="translate(0.000000, 124.000000)">
                    <path d="M33.5,0 C14.9756646,0 0,14.9756646 0,33.5 C0,52.0243354 14.9756646,67 33.5,67 C52.0243354,67 67,52.0243354 67,33.5 C67,14.9756646 52.0243354,0 33.5,0 Z M23,5 C21.2528217,7.53146853 19.7629797,10.2027972 18.51693,13 L11,13 C14.2776524,9.41958042 18.3814898,6.65034965 23,5 Z M9.05849582,15 L18,15 C15.8969359,20.3851792 14.7409471,26.1302932 14.5738162,32 L3,32 C3.29247911,25.6457655 5.49303621,19.7899023 9.05849582,15 L9.05849582,15 Z M9.03607771,52 C5.48381129,47.2100977 3.29139685,41.3542345 3,35 L14.5309898,35 C14.6975023,40.8697068 15.8908418,46.6148208 18,52 L9.03607771,52 Z M11,55 L18.5505618,55 C19.8044944,57.7874564 21.2876404,60.4773519 23,63 C18.388764,61.3554007 14.2764045,58.5818815 11,55 Z M32,65 C30.5753425,64.9279539 29.1643836,64.7550432 27.7945205,64.4956772 C25.5205479,61.5417867 23.5753425,58.3573487 22,55 L32,55 L32,65 L32,65 Z M32,52 L20.6571952,52 C18.4436297,46.6286645 17.1787351,40.8835505 17,35 L32,35 L32,52 Z M32,32 L17,32 C17.1787351,26.1302932 18.4298808,20.3713355 20.6296975,15 L32,15 L32,32 L32,32 Z M32,13 L31.9863574,13 L22,13 C23.5825375,9.61383285 25.5197817,6.42939481 27.79809,3.50432277 C29.1623465,3.23054755 30.5675307,3.07204611 32,3 L32,13 Z M57.9639223,15 C61.5161887,19.7899023 63.7224792,25.6319218 64,32 L52.4690102,32 C52.3024977,26.1302932 51.1091582,20.3851792 49,15 L57.9639223,15 Z M56,13 L48.4579125,13 C47.2053872,10.2125436 45.7239057,7.52264808 44,5 C48.6195286,6.6445993 52.7272727,9.41811847 56,13 Z M35,3 C36.4246575,3.07204611 37.8356164,3.24495677 39.2054795,3.50432277 C41.4794521,6.45821326 43.4246575,9.6426513 45,13 L35,13 L35,3 Z M35,15 L46.3428048,15 C48.5563703,20.3574919 49.8212649,26.1164495 50,32 L35,32 L35,15 L35,15 Z M35,35 L50,35 C49.8212649,40.8697068 48.5701192,46.6286645 46.3703025,52 L35,52 L35,35 L35,35 Z M35,65 L35,55 L35.0136426,55 L45,55 C43.4174625,58.3861671 41.4802183,61.5706052 39.20191,64.4956772 C37.8376535,64.7694524 36.4324693,64.9279539 35,65 L35,65 Z M44,63 C45.7085202,60.4773519 47.1883408,57.7874564 48.426009,55 L56,55 C52.7174888,58.5818815 48.6143498,61.3554007 44,63 Z M49,52 C51.0737327,46.6148208 52.2488479,40.8697068 52.483871,35 L64,35 C63.7096774,41.3542345 61.5253456,47.2100977 57.9861751,52 L49,52 Z" id="Wide-Network"></path>
                </g>
            </g>
        </g>
    </g>
</svg>