<?xml version="1.0" encoding="UTF-8"?>
<svg width="75px" height="67px" viewBox="0 0 75 67" version="1.1" xmlns="http://www.w3.org/2000/svg" xmlns:xlink="http://www.w3.org/1999/xlink">
    <!-- Generator: sketchtool 47.1 (45422) - http://www.bohemiancoding.com/sketch -->
    <title>035849D9-F761-41EA-8487-557085A8A41B</title>
    <desc>Created with sketchtool.</desc>
    <defs></defs>
    <g id="Page-1" stroke="none" stroke-width="1" fill="none" fill-rule="evenodd">
        <g id="Why-CGS-CIMB" transform="translate(-959.000000, -2245.000000)" fill-rule="nonzero" stroke="#0B318F" stroke-width="0.5" fill="#0B318F">
            <g id="For-retail-clients" transform="translate(63.000000, 2120.000000)">
                <g id="Trading-Platforms" transform="translate(897.000000, 126.000000)">
                    <g id="Icon_Platforms-">
                        <path d="M72.5122378,55 L71.2832168,55 L71.2832168,13.75 C71.2832168,11.6789062 69.632488,10 67.5961538,10 L58.993007,10 L58.993007,12.5 L67.5961538,12.5 C68.2748807,12.5 68.8251748,13.0596875 68.8251748,13.75 L68.8251748,55 L4.91608392,55 L4.91608392,13.75 C4.91608392,13.0596875 5.46637806,12.5 6.1451049,12.5 L17.2062937,12.5 L17.2062937,10 L6.1451049,10 C4.10877076,10 2.45804196,11.6789062 2.45804196,13.75 L2.45804196,55 L1.22902098,55 C0.550294143,55 0,55.5596875 0,56.25 L0,61.25 C0,63.3210938 1.6507288,65 3.68706294,65 L70.0541958,65 C72.0905299,65 73.7412587,63.3210938 73.7412587,61.25 L73.7412587,56.25 C73.7412587,55.5596875 73.1909646,55 72.5122378,55 Z M71.2832168,61.25 C71.2832168,61.9403125 70.7329226,62.5 70.0541958,62.5 L3.68706294,62.5 C3.0083361,62.5 2.45804196,61.9403125 2.45804196,61.25 L2.45804196,57.5 L30.7255245,57.5 L30.7255245,58.75 C30.7255245,59.4403125 31.2758186,60 31.9545455,60 L41.7867133,60 C42.4654401,60 43.0157343,59.4403125 43.0157343,58.75 L43.0157343,57.5 L71.2832168,57.5 L71.2832168,61.25 Z" id="Shape"></path>
                        <path d="M8.60314685,15 C7.92442002,15 7.37412587,15.5596875 7.37412587,16.25 L7.37412587,21.25 L9.83216783,21.25 L9.83216783,17.5 L13.5192308,17.5 L13.5192308,15 L8.60314685,15 Z" id="Shape"></path>
                        <path d="M63.9090909,46.25 L63.9090909,50 L60.222028,50 L60.222028,52.5 L65.1381119,52.5 C65.8168387,52.5 66.3671329,51.9403125 66.3671329,51.25 L66.3671329,46.25 L63.9090909,46.25 Z" id="Shape"></path>
                        <path d="M38.0996503,11.25 C32.6695284,11.25 28.2674825,15.7271875 28.2674825,21.25 C28.2736276,26.7703125 32.6719865,31.24375 38.0996503,31.25 C43.5297723,31.25 47.9318182,26.7728125 47.9318182,21.25 C47.9318182,15.7271875 43.5297723,11.25 38.0996503,11.25 Z M38.0996503,28.75 C34.0269821,28.75 30.7255245,25.3921875 30.7255245,21.25 C30.7295188,17.1095312 34.028672,13.7540625 38.0996503,13.75 C42.1723186,13.75 45.4737762,17.1078125 45.4737762,21.25 C45.4737762,25.3921875 42.1723186,28.75 38.0996503,28.75 Z" id="Shape"></path>
                        <path d="M57.763986,16.25 L54.5759056,16.25 C54.2390002,15.1017187 53.7859524,13.9920313 53.2239825,12.93875 L55.480465,10.64375 C55.9602441,10.155625 55.9602441,9.364375 55.480465,8.87625 L50.266958,3.57125 C49.7870253,3.08328125 49.0090551,3.08328125 48.5291224,3.57125 L46.2726399,5.86625 C45.2365752,5.295 44.1452045,4.8346875 43.0157343,4.4925 L43.0157343,1.25 C43.0157343,0.5596875 42.4654401,0 41.7867133,0 L34.4125874,0 C33.7338606,0 33.1835664,0.5596875 33.1835664,1.25 L33.1835664,4.4925 C32.054557,4.83515625 30.9634937,5.2959375 29.9278899,5.8675 L27.6714073,3.57125 C27.1914747,3.08328125 26.4135044,3.08328125 25.9335717,3.57125 L20.7176066,8.875 C20.2378276,9.363125 20.2378276,10.154375 20.7176066,10.6425 L22.9740892,12.9375 C22.4124266,13.99125 21.9598396,15.10125 21.6233951,16.25 L18.4353147,16.25 C17.7565878,16.25 17.2062937,16.8096875 17.2062937,17.5 L17.2062937,25 C17.2062937,25.6903125 17.7565878,26.25 18.4353147,26.25 L21.6233951,26.25 C21.9603005,27.3982812 22.4133483,28.5079687 22.9753182,29.56125 L20.7188357,31.85625 C20.2390566,32.344375 20.2390566,33.135625 20.7188357,33.62375 L25.9323427,38.9275 C26.4122753,39.4154687 27.1902456,39.4154687 27.6701783,38.9275 L29.9266608,36.63375 C30.9627255,37.205 32.0540962,37.6653125 33.1835664,38.0075 L33.1835664,41.25 C33.1835664,41.9403125 33.7338606,42.5 34.4125874,42.5 L41.7867133,42.5 C42.4654401,42.5 43.0157343,41.9403125 43.0157343,41.25 L43.0157343,38.0075 C44.1447437,37.6648437 45.235807,37.2040625 46.2714108,36.6325 L48.5278934,38.92625 C49.007826,39.4142187 49.7857963,39.4142187 50.265729,38.92625 L55.4816941,33.625 C55.9614731,33.136875 55.9614731,32.345625 55.4816941,31.8575 L53.2252115,29.5625 C53.7868741,28.50875 54.2394611,27.39875 54.5759056,26.25 L57.763986,26.25 C58.4427128,26.25 58.993007,25.6903125 58.993007,25 L58.993007,17.5 C58.993007,16.8096875 58.4427128,16.25 57.763986,16.25 Z M56.534965,23.75 L53.6332465,23.75 C53.0634417,23.7501562 52.5684535,24.1485937 52.4374091,24.7125 C52.0742334,26.2664062 51.4684797,27.7510937 50.6430385,29.11 C50.3434646,29.6032812 50.416745,30.2414062 50.8200175,30.65125 L52.8737115,32.74 L49.3968112,36.27625 L47.3431171,34.1875 C46.9401519,33.7773437 46.3127367,33.7028125 45.8277343,34.0075 C44.4916348,34.846875 43.0318652,35.463125 41.5040385,35.8325 C40.9495964,35.9657812 40.5578459,36.4692187 40.5576923,37.04875 L40.5576923,40 L35.6416084,40 L35.6416084,37.04875 C35.6414548,36.4692187 35.2497043,35.9657812 34.6952622,35.8325 C33.1674355,35.463125 31.7076659,34.8470312 30.3715664,34.0075 C29.886564,33.7028125 29.2591488,33.7773437 28.8561836,34.1875 L26.8024895,36.27625 L23.3255892,32.74 L25.3792832,30.65125 C25.7825557,30.2414062 25.8558361,29.6032812 25.5562622,29.11 C24.7309747,27.7510937 24.1250673,26.2664062 23.7618916,24.7125 C23.6308472,24.1485937 23.135859,23.7501562 22.5660542,23.75 L19.6643357,23.75 L19.6643357,18.75 L22.5660542,18.75 C23.135859,18.7498437 23.6308472,18.3514062 23.7618916,17.7875 C24.1250673,16.2335937 24.730821,14.7489062 25.5562622,13.39 C25.8558361,12.8967187 25.7825557,12.2585937 25.3792832,11.84875 L23.3255892,9.76 L26.8024895,6.22375 L28.8561836,8.3125 C29.2591488,8.72265625 29.886564,8.7971875 30.3715664,8.4925 C31.7076659,7.653125 33.1674355,7.036875 34.6952622,6.6675 C35.2497043,6.53421875 35.6414548,6.03078125 35.6416084,5.45125 L35.6416084,2.5 L40.5576923,2.5 L40.5576923,5.45125 C40.5578459,6.03078125 40.9495964,6.53421875 41.5040385,6.6675 C43.0318652,7.036875 44.4916348,7.65296875 45.8277343,8.4925 C46.3127367,8.7971875 46.9401519,8.72265625 47.3431171,8.3125 L49.3968112,6.22375 L52.8737115,9.76 L50.8200175,11.84875 C50.416745,12.2585937 50.3434646,12.8967187 50.6430385,13.39 C51.468326,14.7489062 52.0742334,16.2335937 52.4374091,17.7875 C52.5684535,18.3514062 53.0634417,18.7498437 53.6332465,18.75 L56.534965,18.75 L56.534965,23.75 Z" id="Shape"></path>
                        <rect id="Rectangle-path" x="7.37412587" y="23.75" width="2.45804196" height="2.5"></rect>
                        <rect id="Rectangle-path" x="63.9090909" y="41.25" width="2.45804196" height="2.5"></rect>
                    </g>
                </g>
            </g>
        </g>
    </g>
</svg>