<?xml version="1.0" encoding="UTF-8"?>
<svg width="60px" height="78px" viewBox="0 0 60 78" version="1.1" xmlns="http://www.w3.org/2000/svg" xmlns:xlink="http://www.w3.org/1999/xlink">
    <!-- Generator: sketchtool 47.1 (45422) - http://www.bohemiancoding.com/sketch -->
    <title>0AEAE34A-CB2F-4DE9-86D7-4BAAD6D12EF0</title>
    <desc>Created with sketchtool.</desc>
    <defs></defs>
    <g id="Page-1" stroke="none" stroke-width="1" fill="none" fill-rule="evenodd">
        <g id="Why-CGS-CIMB" transform="translate(-736.000000, -2752.000000)" stroke-width="0.5" stroke="#0B318F" fill="#0B318F" fill-rule="nonzero">
            <g id="For-institutional" transform="translate(0.000000, 2525.000000)">
                <g id="Solutions" transform="translate(737.000000, 228.000000)">
                    <g id="Icon_Solutions">
                        <path d="M22.1765934,66 C21.5283807,66 21,65.5520808 21,65 C21,64.4479192 21.5259138,64 22.1765934,64 L35.8258735,64 C36.4740862,64 37,64.4479192 37,65 C37,65.5520808 36.4740862,66 35.8258735,66 L22.1765934,66 Z" id="Shape"></path>
                        <path d="M23.1773553,71 C22.52736,71 22,70.5520808 22,70 C22,69.4479192 22.5298337,69 23.1773553,69 L33.8226447,69 C34.47264,69 35,69.4479192 35,70 C35,70.5520808 34.47264,71 33.8226447,71 L23.1773553,71 Z" id="Shape"></path>
                        <path d="M30,5.80850859 C30,6.46630813 29.5520989,7 28.9999596,7 C28.4479011,7 28,6.46630813 28,5.80850859 L28,1.19149141 C28,0.53369187 28.4479011,0 28.9999596,0 C29.5521797,0 30,0.53369187 30,1.19149141 L30,5.80850859 Z" id="Shape"></path>
                        <path d="M44.7013988,19.1696194 C48.5908009,22.9794339 51,28.2466231 51,34.0612005 C51,36.3348272 50.6274837,38.5318407 49.9426982,40.5910267 C49.2353566,42.7190787 48.1855735,44.7041382 46.8639462,46.474757 C44.6461317,49.4461292 42.8462384,51.3966602 41.4490338,52.913049 C38.934085,55.6378431 37.8314758,56.8315186 37.8314758,60.8163674 C37.8314758,61.4698282 37.2902287,62 36.6231169,62 L36.5927493,62 L29.5515566,62 L22.4776529,62 C21.8105411,62 21.2667552,61.4698282 21.2667552,60.8163674 C21.2667552,56.8709252 20.1414924,55.6651025 17.6442174,52.984593 L17.6416786,52.9822018 L17.6391398,52.984593 C16.2268978,51.4705954 14.4093308,49.5199688 12.1360538,46.4746613 C10.8144265,44.7040426 9.76464337,42.7165918 9.05730181,40.5885399 C8.37251629,38.5319364 8,36.3323404 8,34.0612961 C8,31.2156998 8.58157459,28.4932969 9.63379885,26.0076205 L9.65645253,25.9607535 C10.7490042,23.3961683 12.3400345,21.0881085 14.3010423,19.169715 C16.274744,17.2364962 18.6436156,15.673049 21.2818902,14.6028538 L21.2818902,14.600367 C23.8193951,13.569674 26.5986693,13 29.5038082,13 C32.4040648,13 35.1806049,13.569674 37.7207462,14.600367 C40.3538456,15.6705622 42.7276972,17.2364005 44.7013988,19.1696194 L44.7013988,19.1696194 Z M48.5807435,34.0612005 C48.5807435,28.9000839 46.4432909,24.2272458 42.9921203,20.8439215 C41.2275745,19.1152918 39.1253718,17.7245833 36.7992688,16.7825551 C34.5588006,15.8726645 32.0916979,15.3696565 29.498633,15.3696565 C26.9082045,15.3696565 24.4411994,15.8726645 22.2031723,16.7825551 L22.2031723,16.780164 L22.1980948,16.7825551 C19.8719917,17.7245833 17.7725231,19.1152918 16.0077821,20.8439215 C14.2607149,22.5552391 12.8484729,24.5970174 11.8842269,26.8508452 L11.8590344,26.9149288 C10.9326748,29.1070642 10.4166201,31.5236834 10.4166201,34.0611048 C10.4166201,36.0880578 10.7463678,38.0410755 11.3505961,39.8583701 C11.9824579,41.7495998 12.9113564,43.5104626 14.0794854,45.0786922 C16.2621477,48.0031973 18.0393873,49.9094437 19.421457,51.3937907 L19.4189182,51.3961819 C22.1074801,54.2739157 23.4442423,55.7139781 23.653203,59.6347433 L29.5464791,59.6347433 L35.4397552,59.6347433 C35.6461771,55.68691 36.9577469,54.2615772 39.658905,51.3369764 C41.0082635,49.8747238 42.7427345,47.99325 44.9153394,45.0834745 C46.0833708,43.5176362 47.0123669,41.7569647 47.6416899,39.8656393 C48.2509958,38.0411712 48.5807435,36.0906402 48.5807435,34.0612005 Z" id="Shape"></path>
                        <path d="M25.3004786,76 C24.5825093,76 24,75.5520808 24,75 C24,74.4479192 24.5825093,74 25.3004786,74 L33.6995214,74 C34.4174907,74 35,74.4479192 35,75 C35,75.5520808 34.4174907,76 33.6995214,76 L25.3004786,76 Z" id="Shape"></path>
                        <path d="M43.8926688,10.3473647 C43.6146667,10.9692042 42.9931728,11.1847005 42.5074302,10.8274443 C42.0238267,10.4701881 41.8564001,9.67104286 42.1342377,9.04645281 L44.1069089,4.65263529 C44.3847464,4.0307958 45.0063226,3.81529954 45.4919829,4.17255574 C45.9777255,4.52981194 46.1431775,5.32895714 45.86534,5.95354719 L43.8926688,10.3473647 Z" id="Shape"></path>
                        <path d="M15.8652498,9.04836763 C16.1432364,9.67043978 15.977778,10.469884 15.4916925,10.8273797 C15.0078295,11.1847696 14.3860022,10.9691927 14.1080156,10.3471205 L12.1342861,5.95155316 C11.8562995,5.329481 12.0238982,4.53003679 12.5078435,4.17264692 C12.9938467,3.81525704 13.615674,4.03072811 13.8936606,4.65280026 L15.8652498,9.04836763 Z" id="Shape"></path>
                        <path d="M6.34736806,18.1063403 C6.96920436,18.3843294 7.18469952,19.0061623 6.82744515,19.4921698 C6.47019078,19.9760371 5.67094389,20.1437196 5.04910759,19.8657305 L0.655206815,17.8919834 C0.0306199661,17.6139943 -0.184769401,16.9921614 0.172484967,16.5082942 C0.529739335,16.0222866 1.32888044,15.8567444 1.95346728,16.1347335 L6.34736806,18.1063403 Z" id="Shape"></path>
                        <path d="M52.9535939,19.8657701 C52.3290124,20.1436403 51.5298782,19.9761118 51.172627,19.4923693 C50.8152699,19.0065696 51.0307632,18.3850028 51.6525941,18.1071326 L56.0464569,16.1342299 C56.6708267,15.8563597 57.4699609,16.0238882 57.8274238,16.5076307 C58.184675,16.991291 57.9692875,17.6149972 57.3473508,17.8928674 L52.9535939,19.8657701 Z" id="Shape"></path>
                        <path d="M16.6342057,38.3307815 C16.9022661,38.9422597 16.6027112,39.6492906 15.9641567,39.9059845 C15.3256022,40.1626785 14.587264,39.8757278 14.3192036,39.2643472 C13.8908166,38.2932046 13.5571171,37.2690639 13.3363495,36.2122265 C13.118232,35.1679798 13,34.1010894 13,33.0291236 C13,32.3623049 13.5676153,31.8212955 14.2613107,31.8212955 C14.9576562,31.8212955 15.5226215,32.3648426 15.5226215,33.0291236 C15.5226215,33.9727424 15.6198571,34.8811267 15.8011801,35.741686 C15.9878031,36.6372844 16.2715598,37.5078967 16.6342057,38.3307815 L16.6342057,38.3307815 Z M16.6342057,27.7245377 C16.3662473,28.3360159 15.6278072,28.622869 14.9892527,28.366175 C14.3506982,28.1094811 14.0511432,27.4023526 14.3192036,26.790972 C14.7421887,25.8322248 15.2598612,24.9238405 15.8511229,24.0808497 L15.8537729,24.078312 L15.8511229,24.075872 C16.4581828,23.2153127 17.1465782,22.4150717 17.9007146,21.6929125 C18.6470029,20.9782686 19.4826786,20.3189653 20.3917396,19.732766 L20.3917396,19.7302284 C21.2642099,19.1665752 22.2180157,18.6708533 23.2270642,18.2632662 C24.2387629,17.8530439 25.3056024,17.533494 26.4118866,17.3220875 C27.5023726,17.110681 28.621805,17 29.7385873,17 C30.4351366,17 31,17.5410094 31,18.2078281 C31,18.8746468 30.4350347,19.4156562 29.7385873,19.4156562 C28.7505351,19.4156562 27.7993794,19.5087688 26.9032627,19.6798656 C25.9651533,19.8585754 25.0585384,20.1328377 24.2019683,20.480009 C23.3690445,20.8172249 22.5648634,21.2374027 21.8002288,21.7305869 L21.8002288,21.7305869 L21.7975787,21.7305869 C21.0539405,22.2086429 20.3444468,22.772296 19.687546,23.4014402 C19.0384933,24.0229715 18.4498817,24.7049186 17.9427073,25.4270778 L17.9400573,25.4245402 C17.4277868,26.1518723 16.9889016,26.9218566 16.6342057,27.7245377 Z" id="Shape"></path>
                    </g>
                </g>
            </g>
        </g>
    </g>
</svg>