<?xml version="1.0" encoding="UTF-8"?>
<svg width="75px" height="75px" viewBox="0 0 75 75" version="1.1" xmlns="http://www.w3.org/2000/svg" xmlns:xlink="http://www.w3.org/1999/xlink">
    <!-- Generator: sketchtool 47.1 (45422) - http://www.bohemiancoding.com/sketch -->
    <title>61072AE3-1E61-4620-9E33-B451AE70F22E</title>
    <desc>Created with sketchtool.</desc>
    <defs></defs>
    <g id="Page-1" stroke="none" stroke-width="1" fill="none" fill-rule="evenodd">
        <g id="Why-CGS-CIMB" transform="translate(-63.000000, -2753.000000)" fill-rule="nonzero" fill="#0B318F">
            <g id="For-institutional" transform="translate(0.000000, 2525.000000)">
                <g id="Global-team" transform="translate(63.000000, 228.000000)">
                    <path d="M66.6341309,63.0470215 L65.4019043,62.5529297 C71.5986328,55.659668 75,46.8055664 75,37.5 C75,29.8870605 72.6984375,22.5619629 68.5050293,16.4041992 C68.4541992,16.3041504 68.3912109,16.2140625 68.3179688,16.1354004 C66.4809082,13.4876953 64.294043,11.0592773 61.7844727,8.92456055 C61.2862793,8.50078125 60.5390625,8.56113281 60.1152832,9.05932617 C59.6915039,9.55751953 59.7518555,10.3050293 60.2499023,10.7286621 C62.2631836,12.4412109 64.055127,14.3554688 65.6096191,16.4271973 C63.1029785,17.4068848 60.0941895,18.2365723 56.7353027,18.8920898 C55.8080566,16.1293945 54.6684082,13.5536133 53.3286621,11.2296387 C51.5229492,8.09707031 49.4459473,5.57460938 47.1823242,3.71938477 C50.7054199,4.72661133 56.7605181,7.57632583 60.2510702,10.7229689 C60.7367308,11.1607795 61.5289999,10.9465041 61.8952108,10.4045119 C62.2612752,9.86266618 62.0801476,9.17805609 61.5767538,8.76037125 C55.1070738,3.39223402 45.0146484,0 37.5,0 C27.483252,0 18.0663574,3.90058594 10.9836914,10.9836914 C3.90058594,18.0663574 0,27.4835449 0,37.5 C0,46.8175781 3.40605469,55.6728516 9.61289063,62.5686035 L8.39619141,63.0451172 C7.9480957,63.2069824 4.13789063,64.7267578 4.13789063,69.5714355 L4.13789063,73.8146484 C4.13789063,74.4688477 4.66787109,75 5.32207031,75 L12.1341797,75 L13.1945801,75 L14.4577148,75 L20.5166016,75 L22.752832,75 C22.9757813,74.9945801 23.0314453,75 23.0885742,75 L27.9070313,75 C28.5612305,75 29.0912109,74.4700195 29.0912109,73.8158203 C29.0912109,73.1616211 28.561084,72.6316406 27.9070313,72.6316406 L24.2727539,72.6316406 L24.2727539,68.507373 C24.2727539,64.1562012 27.6905273,62.9046387 27.8285156,62.8560059 C27.8407227,62.8519043 29.7812012,62.0924316 33.6499512,60.5775879 C33.658252,60.5865723 34.6922852,61.5950684 36.7520508,63.6030762 C36.9733887,63.8184082 37.2700195,63.9389648 37.5783691,63.9389648 C37.9120605,63.9339844 38.2125,63.8034668 38.4309082,63.576416 L41.3736328,60.5230957 L47.132666,62.8325684 C47.3342285,62.9044922 50.7524414,64.1564941 50.7524414,68.507373 L50.7524414,72.6316406 L42.0908203,72.6316406 L32.9339355,72.6316406 L31.6081055,72.6316406 C30.9539063,72.6316406 30.4239258,73.1617676 30.4239258,73.8158203 C30.4239258,74.4700195 30.9540527,75 31.6081055,75 L32.9339355,75 L42.0908203,75 L51.9367676,75 L53.4479004,75 L54.5081543,75 L55.771582,75 L61.8301758,75 L69.7029785,75 C70.3571777,75 70.8871582,74.4615234 70.8871582,73.8074707 L70.8871582,69.5714355 C70.8874512,64.7453613 67.105957,63.2185547 66.6341309,63.0470215 Z M63.0509766,61.6101563 L61.8836426,61.1419922 L61.8836426,60.4681641 C63.1737305,59.7115723 64.1652832,58.499707 64.636377,57.0541992 C66.3591797,56.9181152 67.7200195,55.4756836 67.7200195,53.7186035 C67.7200195,52.673584 67.2383789,51.7395996 66.4861816,51.1246582 L66.4861816,49.0199707 C66.4861816,44.9620605 63.4410645,41.6041992 59.5164551,41.1058594 C59.5611328,40.3029785 59.592041,39.4940918 59.6069824,38.6841797 L72.609668,38.6841797 C72.3250488,47.2560059 68.957959,55.3526367 63.0509766,61.6101563 Z M58.7756836,58.9442871 L57.6956543,58.9442871 C55.603125,58.9442871 53.9008301,57.2419922 53.9008301,55.1497559 L53.9008301,52.0164551 L53.9008301,52.0164551 C55.443457,51.8490234 58.1758301,51.3098145 60.280957,49.551709 C60.7524902,50.3604492 61.4821289,51.2351074 62.5705078,51.7458984 L62.5705078,55.1496094 C62.5703613,57.2419922 60.8680664,58.9442871 58.7756836,58.9442871 Z M59.5154297,61.2666504 L59.5154297,61.9231934 L58.1958984,63.2922363 L56.9560547,62.0847656 L56.9560547,61.2665039 C57.1987793,61.2956543 57.4453125,61.3125 57.6958008,61.3125 L58.7758301,61.3125 C59.0263184,61.3126465 59.2725586,61.2958008 59.5154297,61.2666504 Z M52.720459,49.725 C52.7191406,49.725 52.7178223,49.725 52.7165039,49.725 C52.6757813,49.725 52.6353516,49.7271973 52.5956543,49.7311523 C52.5829102,49.7324707 52.570459,49.7351074 52.5577148,49.7368652 C52.5310547,49.7403809 52.5043945,49.7436035 52.4783203,49.7490234 C52.4604492,49.7525391 52.4433105,49.757959 52.4257324,49.7625 C52.4053711,49.767627 52.3848633,49.7720215 52.3650879,49.7781738 C52.3521973,49.7821289 52.3400391,49.7875488 52.3272949,49.7919434 L52.3272949,49.0201172 C52.3272949,45.9254883 54.8449219,43.4080078 57.9395508,43.4080078 L58.5058594,43.4080078 C61.6003418,43.4080078 64.1175293,45.9254883 64.1175293,49.0201172 L64.1175293,49.7822754 C64.0952637,49.7750977 64.0727051,49.7695312 64.0498535,49.7638184 C64.0390137,49.7607422 64.0281738,49.7572266 64.0171875,49.7544434 C62.3663086,49.3790039 61.8263672,47.1757324 61.8224121,47.1590332 C61.7197266,46.7052246 61.3606934,46.3536621 60.9046875,46.260498 C60.4486816,46.167041 59.9806641,46.3495605 59.7079102,46.7266113 C57.5635254,49.6910156 52.7831543,49.725 52.720459,49.725 Z M64.9387207,54.5166504 L64.9387207,52.9208496 C65.1880371,53.0988281 65.3515137,53.3898926 65.3515137,53.7188965 C65.3515137,54.0479004 65.1880371,54.3386719 64.9387207,54.5166504 Z M66.9994629,18.4201172 C70.4296875,23.7193359 72.3938965,29.8883789 72.609375,36.3156738 L59.6063965,36.3156738 C59.5103027,30.9852539 58.7654297,25.8440918 57.4372559,21.1620117 C61.078125,20.4388184 64.3243652,19.5146484 66.9994629,18.4201172 Z M57.2377441,36.3159668 L45.1174805,36.3159668 C45.1161621,36.3158203 45.1149902,36.3159668 45.1138184,36.3159668 C43.4982422,34.5300293 41.2271484,33.3500977 38.6841797,33.1538086 L38.6841797,22.9702148 C44.4953613,22.9123535 50.1032227,22.4291016 55.0995117,21.5893066 C56.4068848,26.1174316 57.140625,31.1175293 57.2377441,36.3159668 Z M46.7915039,48.6818848 C46.7915039,49.378418 46.3209961,49.9656738 45.6812988,50.1462891 L45.6812988,47.217041 C46.3209961,47.3979492 46.7915039,47.9853516 46.7915039,48.6818848 Z M38.6841797,2.43413086 C43.3967285,2.93745117 47.8305176,6.4340332 51.276709,12.4123535 C52.486084,14.5101562 53.5245117,16.827832 54.3805664,19.3139648 C49.6060547,20.095752 44.2478027,20.545752 38.6840332,20.6015625 L38.6840332,2.43413086 L38.6841797,2.43413086 Z M37.9331543,35.4902344 C41.9668945,35.4902344 45.2484375,38.7720703 45.2484375,42.805957 L45.2484375,44.2530762 C45.2069824,44.2214355 45.1895508,44.208252 45.1715332,44.1958008 C45.1576172,44.1861328 45.1432617,44.1771973 45.1289063,44.1681152 C45.1111816,44.1568359 45.0936035,44.1457031 45.0751465,44.1354492 C45.0583008,44.1259277 45.0408691,44.1175781 45.023584,44.1089355 C45.0070313,44.1007324 44.990625,44.0923828 44.9736328,44.0847656 C44.952832,44.0755371 44.9312988,44.0679199 44.9100586,44.0598633 C44.8952637,44.0542969 44.8806152,44.048584 44.8656738,44.0436035 C44.8417969,44.0356934 44.8171875,44.0293945 44.7927246,44.0230957 C42.510498,43.5021973 41.7978516,40.5691406 41.7918457,40.5436523 C41.6891602,40.0898437 41.330127,39.7382812 40.8741211,39.6451172 C40.4182617,39.5513672 39.9500977,39.7341797 39.6773438,40.1112305 C36.904248,43.9450195 30.778418,43.9842773 30.6975586,43.9842773 C30.6522949,43.9842773 30.6118652,43.9863281 30.572168,43.9902832 C30.5084473,43.9996582 30.4812012,44.0028809 30.454834,44.0081543 C30.4379883,44.0116699 30.421582,44.0169434 30.4047363,44.0210449 C30.3836426,44.0263184 30.3621094,44.0310059 30.3416016,44.0373047 C30.3224121,44.0433105 30.3039551,44.0510742 30.2852051,44.057959 C30.2680664,44.0642578 30.2501953,44.0698242 30.2332031,44.0768555 C30.2115234,44.086084 30.1908691,44.0969238 30.1702148,44.1070313 C30.1567383,44.113623 30.1431152,44.1193359 30.1299316,44.1265137 C30.1085449,44.1379395 30.088623,44.151123 30.0681152,44.1637207 C30.0563965,44.1711914 30.0440918,44.1777832 30.032373,44.1855469 C30.0133301,44.1984375 29.9953125,44.212793 29.9768555,44.2268555 C29.9649902,44.235791 29.9526855,44.2439941 29.9411133,44.2535156 C29.9302734,44.2624512 29.920166,44.2725586 29.9094727,44.2819336 L29.9094727,42.8058105 C29.9094727,38.7719238 33.1910156,35.4902344 37.2247559,35.4902344 L37.9331543,35.4902344 Z M17.7622559,36.3158203 C17.859375,31.1165039 18.5934082,26.1153809 19.9010742,21.5868164 C24.9043945,22.4277832 30.5182617,22.9120605 36.3158203,22.9703613 L36.3158203,33.1659668 C33.8333496,33.3984375 31.6204102,34.5706055 30.0376465,36.3237305 C29.9945801,36.319043 29.9507813,36.3159668 29.9063965,36.3159668 L17.7622559,36.3159668 L17.7622559,36.3158203 Z M29.5088379,47.2048828 L29.5088379,50.1588867 C28.8448242,49.9946777 28.3507324,49.3958496 28.3507324,48.6818848 C28.3505859,47.9680664 28.8448242,47.3692383 29.5088379,47.2048828 Z M36.3158203,2.43413086 L36.3158203,20.6015625 C30.7652344,20.5453125 25.4027344,20.0935547 20.6206055,19.3103027 C21.4765137,16.8256348 22.514502,14.5094238 23.723291,12.4123535 C27.1694824,6.4340332 31.6032715,2.93745117 36.3158203,2.43413086 Z M27.8046387,3.72978516 C25.5461426,5.58427734 23.4735352,8.1027832 21.6711914,11.2294922 C20.3318848,13.5528809 19.1926758,16.1274902 18.2655762,18.8894531 C14.9109375,18.2348145 11.9069824,17.4070313 9.4050293,16.4311523 C13.9404785,10.3981934 20.3711426,5.86728516 27.8046387,3.72978516 Z M8.01123047,18.4256836 C10.6795898,19.5161133 13.926416,20.4367676 17.5637695,21.1592285 C16.2347168,25.8418945 15.4898438,30.9842285 15.393457,36.3158203 L2.390625,36.3158203 C2.60961914,29.737793 4.64501953,23.6122559 8.01123047,18.4256836 Z M15.642041,61.2667969 C15.8847656,61.2959473 16.1312988,61.3126465 16.3817871,61.3126465 L17.4619629,61.3126465 C17.7121582,61.3126465 17.9586914,61.2959473 18.2012695,61.2666504 L18.2012695,61.9230469 L16.8820313,63.2920898 L15.642041,62.0846191 L15.642041,61.2667969 L15.642041,61.2667969 Z M17.4619629,58.9442871 L16.3817871,58.9442871 C14.2892578,58.9442871 12.5869629,57.2419922 12.5869629,55.1496094 L12.5869629,52.0177734 C14.1292969,51.8509277 16.8606445,51.3108398 18.9670898,49.551709 C19.4387695,50.3605957 20.1682617,51.2354004 21.2564941,51.7461914 L21.2564941,55.1497559 C21.2563477,57.2419922 19.5541992,58.9442871 17.4619629,58.9442871 Z M20.5089844,47.1588867 C20.4062988,46.7050781 20.0472656,46.3535156 19.5912598,46.2603516 C19.1352539,46.1668945 18.6670898,46.3494141 18.3946289,46.7264648 C16.2486328,49.692627 11.4644531,49.7251465 11.4067383,49.7251465 C11.3620605,49.7251465 11.3216309,49.7271973 11.2819336,49.7311523 C11.2694824,49.7326172 11.2574707,49.7351074 11.2450195,49.7368652 C11.2182129,49.7403809 11.1909668,49.74375 11.1645996,49.7490234 C11.1477539,49.7525391 11.1313477,49.7578125 11.114502,49.7619141 C11.0934082,49.7671875 11.0720215,49.771875 11.0513672,49.7781738 C11.038623,49.7821289 11.0266113,49.7875488 11.0140137,49.7919434 L11.0140137,49.0201172 C11.0140137,46.6897662 12.4415647,44.6866072 14.4681251,43.8393072 C15.1327698,43.5614209 15.8618452,43.4078613 16.626123,43.4078613 L17.1925781,43.4078613 C20.2870605,43.4078613 22.804248,45.9254883 22.804248,49.0201172 L22.804248,49.7824219 C22.78125,49.7749512 22.757666,49.7693848 22.7345215,49.7633789 C21.0528809,49.3791504 20.5129395,47.1754395 20.5089844,47.1588867 Z M2.39047852,38.6841797 L15.3931641,38.6841797 C15.407959,39.4998047 15.4394531,40.3144043 15.4844238,41.1224121 C11.6229492,41.6777344 8.64521484,45.0070313 8.64521484,49.0199707 L8.64521484,51.1154297 C7.88569336,51.7300781 7.39863281,52.6681641 7.39863281,53.7186035 C7.39863281,55.4887207 8.78041992,56.9387695 10.5216797,57.05625 C10.9927734,58.5008789 11.9838867,59.7117188 13.2735352,60.4681641 L13.2735352,61.1351074 L11.9799316,61.6416504 C6.05302734,55.3792969 2.67524414,47.2744629 2.39047852,38.6841797 Z M10.2183105,52.8944824 L10.2183105,54.5427246 C9.94731445,54.3681152 9.76699219,54.0643066 9.76699219,53.7188965 C9.76699219,53.3731934 9.94731445,53.0693848 10.2183105,52.8944824 Z M21.9041016,68.5075195 L21.9041016,72.6316406 L20.5163086,72.6316406 L14.4575684,72.6316406 L13.1944336,72.6316406 L12.1341797,72.6316406 L6.50639648,72.6316406 L6.50639648,69.5714355 C6.50639648,66.2698242 9.08745117,65.3129883 9.18779297,65.2773926 C9.20610352,65.2712402 9.22441406,65.2646484 9.24243164,65.2574707 L13.7088867,63.5083008 L16.0822266,65.8198242 C16.303418,66.0353027 16.5999023,66.1557129 16.9083984,66.1557129 C16.9145508,66.1557129 16.9208496,66.1557129 16.9271484,66.1555664 C17.2422363,66.1507324 17.5425293,66.0202148 17.7609375,65.7931641 L20.0027344,63.4666992 L22.7737793,64.5777832 C22.2483398,65.653125 21.9041016,66.9555176 21.9041016,68.5075195 Z M33.3295898,58.1595703 L27.0442383,60.6209473 C26.2438477,60.8963379 25.1361328,61.5316406 24.1535156,62.5792969 L20.5694824,61.1419922 L20.5694824,60.468457 C21.8598633,59.7117187 22.8512695,58.4998535 23.3223633,57.0541992 C25.0453125,56.9181152 26.4062988,55.4756836 26.4062988,53.7186035 C26.4062988,52.673584 25.9245117,51.7395996 25.1723145,51.1246582 L25.1723145,49.0199707 C25.1723145,44.8423828 21.9452637,41.4065918 17.8535156,41.0689453 C17.8083984,40.2789551 17.7771973,39.4820801 17.7621094,38.6840332 L28.4642578,38.6840332 C27.8730469,39.9354492 27.5408203,41.3321777 27.5408203,42.8056641 L27.5408203,45.5689453 C26.5949707,46.279541 25.9819336,47.4102539 25.9819336,48.6818848 C25.9819336,50.807373 27.6953613,52.5394043 29.8135254,52.5719238 C30.3692871,54.4489746 31.6494141,56.0172363 33.3292969,56.9516602 L33.3292969,58.1595703 L33.3295898,58.1595703 Z M23.6248535,54.5167969 L23.6248535,52.9204102 C23.8743164,53.0985352 24.0379395,53.3895996 24.0379395,53.71875 C24.0379395,54.0479004 23.8743164,54.3388184 23.6248535,54.5167969 Z M39.492334,58.9860352 C39.492334,58.9876465 39.492334,58.9892578 39.492334,58.9904297 L39.492334,59.062207 L37.552002,61.0756348 L35.6979492,59.2697754 L35.6979492,57.7797363 C36.0956543,57.8460938 36.5034668,57.8822754 36.9199219,57.8822754 L38.2708008,57.8822754 C38.6869629,57.8822754 39.0946289,57.8460938 39.492334,57.7800293 L39.492334,58.9860352 Z M38.2708008,55.5140625 L36.9199219,55.5140625 C34.1393555,55.5140625 31.8771973,53.2520508 31.8771973,50.4714844 L31.8771973,46.2905273 C33.7671387,46.1165039 37.504248,45.4595215 40.2339844,43.0089844 C40.8101074,44.0992676 41.7758789,45.3650391 43.3130859,46.021582 L43.3130859,50.4713379 C43.3129395,53.2520508 41.0510742,55.5140625 38.2708008,55.5140625 Z M50.8790039,62.5873535 C49.8965332,61.5370605 48.7875,60.8995605 47.9853516,60.6227051 L41.8605469,58.1663086 L41.8605469,56.9516602 C43.5408691,56.0170898 44.8207031,54.4483887 45.3763184,52.570752 C47.4720703,52.5127441 49.1595703,50.7911133 49.1595703,48.6820313 C49.1595703,47.4177246 48.553125,46.2927246 47.6165039,45.5813965 L47.6165039,42.8058105 C47.6165039,41.3324707 47.2844238,39.9355957 46.6930664,38.6841797 L57.2374512,38.6841797 C57.2220703,39.4854492 57.1907227,40.2855469 57.1450195,41.0793457 C53.1158203,41.4791016 49.9584961,44.8876465 49.9584961,49.0199707 L49.9584961,51.1157227 C49.1991211,51.7302246 48.712207,52.6683105 48.712207,53.71875 C48.712207,55.4890137 50.0939941,56.9390625 51.8352539,57.0563965 C52.3063477,58.5010254 53.2976074,59.7118652 54.5872559,60.4683105 L54.5872559,61.1352539 L50.8790039,62.5873535 Z M51.5324707,52.8944824 L51.5324707,54.5427246 C51.2613281,54.3681152 51.0811523,54.0643066 51.0811523,53.7188965 C51.0811523,53.3731934 51.2614746,53.0692383 51.5324707,52.8944824 Z M68.5190918,72.6316406 L61.8304688,72.6316406 L55.771875,72.6316406 L54.5084473,72.6316406 L53.4481934,72.6316406 L53.1212402,72.6316406 L53.1212402,68.507373 C53.1212402,66.9616699 52.7800781,65.6636719 52.2580078,64.5909668 L55.0230469,63.5081543 L57.3960938,65.8196777 C57.6172852,66.0351563 57.9137695,66.1557129 58.2224121,66.1557129 C58.2285645,66.1557129 58.2348633,66.1557129 58.2410156,66.1555664 C58.5561035,66.1507324 58.8563965,66.0202148 59.0749512,65.7931641 L61.3168945,63.4666992 L65.7738281,65.2538086 C65.7946289,65.2623047 65.8062012,65.2666992 65.8277344,65.2740234 C65.9375977,65.3129883 68.5192383,66.2699707 68.5192383,69.571582 L68.5192383,72.6316406 L68.5190918,72.6316406 Z" id="Icon_Global-team"></path>
                </g>
            </g>
        </g>
    </g>
</svg>