<?xml version="1.0" encoding="UTF-8"?>
<svg width="14px" height="11px" viewBox="0 0 14 11" version="1.1" xmlns="http://www.w3.org/2000/svg" xmlns:xlink="http://www.w3.org/1999/xlink">
    <!-- Generator: sketchtool 47.1 (45422) - http://www.bohemiancoding.com/sketch -->
    <title>52F23B05-79C9-49F4-AE48-337BFAD56324</title>
    <desc>Created with sketchtool.</desc>
    <defs></defs>
    <g id="Page-1" stroke="none" stroke-width="1" fill="none" fill-rule="evenodd">
        <g id="Product-Details-International-&amp;-Country-Template-(CFD)_Our-Experts" transform="translate(-1039.000000, -582.000000)">
            <g id="Open-an-account-now" transform="translate(1031.000000, 215.000000)">
                <g id="Email" transform="translate(3.000000, 354.000000)">
                    <g id="Icon-Email" transform="translate(0.000000, 6.000000)">
                        <rect id="Rectangle-3" x="0" y="0" width="24" height="24"></rect>
                        <g id="email" transform="translate(5.000000, 7.000000)" fill-rule="nonzero" fill="#FFFFFF">
                            <path d="M12.7695312,0 L1.23046875,0 C0.552835938,0 0,0.569630769 0,1.26923077 L0,9.73076923 C0,10.428 0.550375,11 1.23046875,11 L12.7695312,11 C13.4454687,11 14,10.4322872 14,9.73076923 L14,1.26923077 C14,0.572 13.449625,0 12.7695312,0 Z M12.5996172,0.846153846 L7.02608594,6.59528974 L1.40434766,0.846153846 L12.5996172,0.846153846 Z M0.8203125,9.55555897 L0.8203125,1.44040769 L4.77091016,5.48051026 L0.8203125,9.55555897 Z M1.40035547,10.1538462 L5.35344141,6.07623077 L6.73859375,7.49274872 C6.8989375,7.65673333 7.15769141,7.65619744 7.31737891,7.49145128 L8.66796875,6.09831538 L12.5996445,10.1538462 L1.40035547,10.1538462 Z M13.1796875,9.55553077 L9.24801172,5.5 L13.1796875,1.44444103 L13.1796875,9.55553077 Z" id="Shape"></path>
                        </g>
                    </g>
                </g>
            </g>
        </g>
    </g>
</svg>