<?xml version="1.0" encoding="UTF-8"?>
<svg width="14px" height="12px" viewBox="0 0 14 12" version="1.1" xmlns="http://www.w3.org/2000/svg" xmlns:xlink="http://www.w3.org/1999/xlink">
    <!-- Generator: sketchtool 47.1 (45422) - http://www.bohemiancoding.com/sketch -->
    <title>73088A94-9476-4011-B4C4-458AAE089753</title>
    <desc>Created with sketchtool.</desc>
    <defs></defs>
    <g id="Page-1" stroke="none" stroke-width="1" fill="none" fill-rule="evenodd">
        <g id="Contact-Us-page" transform="translate(-177.000000, -855.000000)">
            <g id="Drop-us-a-call" transform="translate(172.000000, 538.000000)">
                <g id="Raffless-Place" transform="translate(0.000000, 140.000000)">
                    <g id="Email" transform="translate(0.000000, 165.000000)">
                        <g id="Group-3" transform="translate(0.000000, 5.833333)">
                            <rect id="Rectangle-3" x="0" y="0" width="24" height="23.2"></rect>
                            <g id="email" transform="translate(5.000000, 6.766667)" fill-rule="nonzero" fill="#0B318F">
                                <path d="M12.7695312,0 L1.23046875,0 C0.552835938,0 0,0.550643077 0,1.22692308 L0,9.40641026 C0,10.0804 0.550375,10.6333333 1.23046875,10.6333333 L12.7695312,10.6333333 C13.4454687,10.6333333 14,10.0845443 14,9.40641026 L14,1.22692308 C14,0.552933333 13.449625,0 12.7695312,0 Z M12.5996172,0.817948718 L7.02608594,6.37544675 L1.40434766,0.817948718 L12.5996172,0.817948718 Z M0.8203125,9.23704034 L0.8203125,1.3923941 L4.77091016,5.29782658 L0.8203125,9.23704034 Z M1.40035547,9.81538462 L5.35344141,5.87368974 L6.73859375,7.24299043 C6.8989375,7.40150889 7.15769141,7.40099085 7.31737891,7.24173624 L8.66796875,5.89503821 L12.5996445,9.81538462 L1.40035547,9.81538462 Z M13.1796875,9.23701308 L9.24801172,5.31666667 L13.1796875,1.39629299 L13.1796875,9.23701308 Z" id="Shape"></path>
                            </g>
                        </g>
                    </g>
                </g>
            </g>
        </g>
    </g>
</svg>