<?xml version="1.0" encoding="UTF-8"?>
<svg width="14px" height="15px" viewBox="0 0 14 15" version="1.1" xmlns="http://www.w3.org/2000/svg" xmlns:xlink="http://www.w3.org/1999/xlink">
    <!-- Generator: sketchtool 47.1 (45422) - http://www.bohemiancoding.com/sketch -->
    <title>B0115543-D7D4-4437-BFB9-CEE006773DC4</title>
    <desc>Created with sketchtool.</desc>
    <defs></defs>
    <g id="Page-1" stroke="none" stroke-width="1" fill="none" fill-rule="evenodd">
        <g id="Contact-Us-page" transform="translate(-177.000000, -889.000000)">
            <g id="Drop-us-a-call" transform="translate(172.000000, 538.000000)">
                <g id="Raffless-Place" transform="translate(0.000000, 140.000000)">
                    <g id="Phone" transform="translate(0.000000, 201.000000)">
                        <g id="Icon_Lightbulb-Copy-3" transform="translate(0.000000, 4.388489)">
                            <rect id="Rectangle" x="0" y="0" width="24" height="24.1726619"></rect>
                            <g id="001-telephone" transform="translate(5.000000, 6.043165)" fill-rule="nonzero" fill="#0B318F">
                                <path d="M13.640113,10.4001971 L11.8996337,8.64727258 C11.4197844,8.16401965 10.6389765,8.16401965 10.1591545,8.64727258 L9.3680375,9.44404642 C9.00451363,9.81016966 8.41298749,9.8100595 8.04960034,9.44418413 L4.62054256,5.98766016 C4.25617099,5.62068317 4.2561163,5.02671747 4.62054256,4.6596854 C4.74797006,4.53134672 5.11387295,4.16282746 5.41165955,3.86291155 C5.88940332,3.38177924 5.89607549,2.59783926 5.41119468,2.10954642 L3.67118029,0.362598214 C3.19133096,-0.12065472 2.41055037,-0.12065472 1.93198625,0.361331352 C1.57387668,0.71886196 1.45837157,0.834201522 1.29780198,0.9945147 C-0.432586987,2.73724921 -0.432586987,5.57290042 1.29771994,7.31557985 L6.73094441,12.7905186 C8.46538043,14.5373842 11.2726139,14.5375219 13.0071866,12.7905186 L13.640113,12.153094 C14.1199623,11.6698135 14.1199623,10.8834775 13.640113,10.4001971 Z M2.51087902,0.946897197 C2.67081968,0.785812885 2.93103431,0.785785345 3.09149452,0.947337845 L4.83150891,2.69428605 C4.9918324,2.85575593 4.9918324,3.11708761 4.83150891,3.27858503 L4.54140625,3.57073452 L2.22228033,1.23502578 L2.51087902,0.946897197 Z M7.31120443,12.2063022 L1.87795261,6.73130841 C0.539198143,5.38298122 0.465612861,3.26580624 1.65164574,1.82893639 L3.9640448,4.15787017 C3.35643982,4.85158751 3.38176125,5.90867404 4.0402552,6.57187652 L7.4692036,10.0282352 C7.46923094,10.0282628 7.46928563,10.0283179 7.46931298,10.0283454 C8.12709595,10.6908594 9.1766228,10.7180143 9.86626264,10.1052384 L12.1787164,12.4342273 C10.7565871,13.6266753 8.65917415,13.5639106 7.31120443,12.2063022 Z M13.0599897,11.568795 L12.769887,11.8609721 L10.4492572,9.52372105 L10.7393051,9.23157156 C10.8992731,9.07048725 11.1595151,9.07045971 11.3194831,9.23157156 L13.0599624,10.9844961 C13.2199304,11.1456079 13.2199304,11.4077383 13.0599897,11.568795 Z" id="Shape"></path>
                            </g>
                        </g>
                    </g>
                </g>
            </g>
        </g>
    </g>
</svg>