<?xml version="1.0" encoding="UTF-8"?>
<svg width="14px" height="14px" viewBox="0 0 14 14" version="1.1" xmlns="http://www.w3.org/2000/svg" xmlns:xlink="http://www.w3.org/1999/xlink">
    <!-- Generator: sketchtool 47.1 (45422) - http://www.bohemiancoding.com/sketch -->
    <title>D366C537-7290-4840-943F-ABAC73643BA0</title>
    <desc>Created with sketchtool.</desc>
    <defs></defs>
    <g id="Page-1" stroke="none" stroke-width="1" fill="none" fill-rule="evenodd">
        <g id="Product-Details-International-&amp;-Country-Template-(CFD)_Our-Experts" transform="translate(-1039.000000, -536.000000)">
            <g id="Open-an-account-now" transform="translate(1031.000000, 215.000000)">
                <g id="Phone" transform="translate(3.000000, 313.000000)">
                    <g id="Phone-Icon" transform="translate(0.000000, 3.000000)">
                        <rect id="Rectangle-3" x="0" y="0" width="24" height="24"></rect>
                        <g id="001-telephone" transform="translate(5.000000, 5.000000)" fill-rule="nonzero" fill="#FFFFFF">
                            <path d="M13.640113,10.3259099 L11.8996337,8.58550635 C11.4197844,8.10570522 10.6389765,8.10570522 10.1591545,8.58550635 L9.3680375,9.37658895 C9.00451363,9.74009702 8.41298749,9.73998765 8.04960034,9.37672567 L4.62054256,5.94489116 C4.25617099,5.58053543 4.2561163,4.99081235 4.62054256,4.62640193 C4.74797006,4.49897996 5.11387295,4.13309298 5.41165955,3.83531933 C5.88940332,3.35762367 5.89607549,2.57928327 5.41119468,2.09447823 L3.67118029,0.360008227 C3.19133096,-0.1197929 2.41055037,-0.1197929 1.93198625,0.358750414 C1.57387668,0.713727232 1.45837157,0.82824294 1.29780198,0.987411023 C-0.432586987,2.71769743 -0.432586987,5.53309399 1.29771994,7.26332571 L6.73094441,12.6991578 C8.46538043,14.4335457 11.2726139,14.4336824 13.0071866,12.6991578 L13.640113,12.0662862 C14.1199623,11.5864577 14.1199623,10.8057384 13.640113,10.3259099 Z M2.51087902,0.940133645 C2.67081968,0.780199936 2.93103431,0.780172593 3.09149452,0.940571146 L4.83150891,2.67504115 C4.9918324,2.83535767 4.9918324,3.0948227 4.83150891,3.25516657 L4.54140625,3.54522927 L2.22228033,1.22620416 L2.51087902,0.940133645 Z M7.31120443,12.1191144 L1.87795261,6.68322763 C0.539198143,5.34453135 0.465612861,3.24247906 1.65164574,1.81587256 L3.9640448,4.1281711 C3.35643982,4.81693332 3.38176125,5.86646923 4.0402552,6.52493455 L7.4692036,9.95660499 C7.46923094,9.95663234 7.46928563,9.95668702 7.46931298,9.95671437 C8.12709595,10.6144961 9.1766228,10.641457 9.86626264,10.0330582 L12.1787164,12.3454114 C10.7565871,13.5293419 8.65917415,13.4670255 7.31120443,12.1191144 Z M13.0599897,11.4861608 L12.769887,11.7762508 L10.4492572,9.45569448 L10.7393051,9.16563177 C10.8992731,9.00569806 11.1595151,9.00567071 11.3194831,9.16563177 L13.0599624,10.9060354 C13.2199304,11.0659964 13.2199304,11.3262544 13.0599897,11.4861608 Z" id="Shape"></path>
                        </g>
                    </g>
                </g>
            </g>
        </g>
    </g>
</svg>